# xmcd
#
# Track frame offsets:
#	150
#	12927
#	38685
#	54800
#	73330
#	92112
#	107287
#	122827
#	140080
#	160825
#	178880
#	192615
#	215012
#	233140
#	258277
#	279862
#	299705
#
# Disc length: 4231 seconds
#
# Revision: 1
# Processed by: cddbd v1.5.2PL0 Copyright (c) Steve Scherf et al.
# Submitted via: EasyCDDAExtractor 6.2.0.3
#
DISCID=00108511
DTITLE=Earth Wind and Fire - Greatest Hits
DYEAR=1998
DGENRE=R&B
TTITLE0=Shining Star
TTITLE1=Thats The Way Of The World
TTITLE2=September
TTITLE3=Cant Hide Love
TTITLE4=Got To Get You Into My Life
TTITLE5=Sing A Song
TTITLE6=Gratitude
TTITLE7=Serpentine Fire
TTITLE8=Fantasy
TTITLE9=Kalimba Story
TTITLE10=Mighty Mighty
TTITLE11=Reasons
TTITLE12=Saturday Nite
TTITLE13=Lets Groove
TTITLE14=Boogie Wonderland
TTITLE15=After The Love Is Gone
TTITLE16=Getaway
EXTD=
EXTT0=
EXTT1=
EXTT2=
EXTT3=
EXTT4=
EXTT5=
EXTT6=
EXTT7=
EXTT8=
EXTT9=
EXTT10=
EXTT11=
EXTT12=
EXTT13=
EXTT14=Duet with The Emotions
EXTT15=
EXTT16=
PLAYORDER=
